<?xml version="1.0" standalone="no"?>
<!DOCTYPE svg PUBLIC "-//W3C//DTD SVG 20010904//EN"
 "http://www.w3.org/TR/2001/REC-SVG-20010904/DTD/svg10.dtd">
<svg version="1.0" xmlns="http://www.w3.org/2000/svg"
 width="442" height="442" viewBox="0 0 442.000000 442.000000"
 preserveAspectRatio="xMidYMid meet">

<g transform="translate(0.000000,442.000000) scale(0.100000,-0.100000)"
fill="#000000" stroke="none">
<path d="M1545 4379 c-278 -44 -371 -70 -543 -151 -57 -26 -105 -48 -108 -48
-2 0 -24 -16 -50 -35 -25 -19 -51 -35 -58 -35 -12 0 -47 -27 -184 -142 -55
-46 -137 -134 -241 -258 -16 -19 -41 -58 -55 -85 -15 -27 -36 -59 -46 -70 -11
-12 -20 -24 -20 -28 0 -3 -22 -52 -48 -109 -81 -173 -107 -267 -152 -548 -11
-71 -11 -229 0 -300 39 -245 79 -401 129 -505 16 -33 41 -85 55 -115 14 -30
36 -69 49 -87 12 -17 33 -51 47 -74 35 -60 177 -229 233 -279 110 -96 158
-134 224 -175 9 -5 25 -17 35 -25 10 -8 67 -40 126 -71 131 -68 350 -142 493
-165 199 -34 588 -16 682 31 17 8 35 15 42 15 21 0 229 72 245 84 8 7 57 33
108 59 51 26 104 57 117 69 14 13 44 34 69 47 l44 24 36 -29 c19 -17 52 -49
71 -72 31 -35 34 -44 25 -62 -19 -35 -24 -154 -10 -207 8 -27 31 -70 54 -98
71 -86 819 -829 869 -863 110 -74 234 -66 349 21 37 28 167 158 195 195 87
115 95 239 21 349 -35 51 -793 815 -868 874 -25 20 -67 42 -93 49 -53 14 -172
9 -207 -10 -18 -9 -27 -6 -62 25 -23 19 -55 52 -72 71 l-29 36 24 44 c13 25
34 55 47 69 12 13 43 66 69 117 26 51 52 100 59 108 12 16 84 224 84 245 0 7
7 25 15 42 47 94 65 483 31 682 -23 143 -97 362 -165 493 -31 59 -63 116 -71
126 -8 10 -19 26 -25 35 -41 66 -79 114 -175 224 -50 56 -219 198 -279 233
-23 14 -57 35 -74 47 -18 13 -57 35 -87 49 -30 14 -82 39 -115 55 -104 50
-260 90 -505 129 -67 10 -237 10 -305 -1z m348 -309 c40 -6 81 -15 92 -20 11
-5 56 -18 100 -30 91 -23 183 -57 205 -75 8 -7 44 -27 78 -44 164 -80 417
-323 493 -474 12 -23 25 -44 29 -47 10 -6 73 -150 90 -205 7 -22 16 -44 20
-50 10 -14 37 -135 50 -222 14 -100 12 -281 -4 -388 -17 -111 -34 -186 -45
-200 -5 -5 -16 -35 -26 -65 -20 -63 -72 -182 -83 -190 -4 -3 -16 -21 -26 -41
-76 -144 -277 -352 -434 -447 -29 -18 -57 -32 -62 -32 -6 0 -10 -4 -10 -9 0
-10 -112 -61 -190 -86 -30 -10 -60 -21 -65 -26 -14 -11 -89 -28 -200 -45 -207
-32 -495 -6 -632 57 -24 10 -48 19 -54 19 -15 0 -173 70 -179 80 -3 4 -24 17
-47 29 -155 78 -394 329 -479 503 -20 40 -40 75 -43 78 -15 11 -72 177 -86
250 -4 19 -11 40 -15 45 -15 19 -30 168 -30 288 0 125 11 218 35 297 7 25 25
85 40 133 25 85 150 337 166 337 5 0 16 14 25 32 33 64 258 288 289 288 8 0
20 9 28 20 15 22 213 132 282 157 62 23 213 64 285 78 81 16 307 19 403 5z"/>
<path d="M813 3095 c-81 -148 -97 -220 -97 -430 -1 -205 17 -284 96 -433 127
-240 336 -406 581 -462 50 -12 106 -25 123 -31 47 -14 181 -11 259 7 162 36
275 74 303 101 8 8 27 20 43 28 41 22 36 27 -20 19 -100 -13 -386 27 -436 62
-11 8 -26 14 -33 14 -20 0 -182 71 -182 80 0 4 -12 12 -27 19 -55 24 -162 105
-230 174 -66 66 -173 204 -173 223 0 4 -9 17 -19 28 -20 21 -81 155 -81 176 0
6 -9 29 -20 51 -29 61 -51 175 -58 301 l-7 113 -22 -40z"/>
</g>
</svg>
