<?xml version="1.0" standalone="no"?>
<!DOCTYPE svg PUBLIC "-//W3C//DTD SVG 20010904//EN"
 "http://www.w3.org/TR/2001/REC-SVG-20010904/DTD/svg10.dtd">
<svg version="1.0" xmlns="http://www.w3.org/2000/svg"
 width="442.000000pt" height="369.000000pt" viewBox="0 0 442.000000 369.000000"
 preserveAspectRatio="xMidYMid meet">

<g transform="translate(0.000000,369.000000) scale(0.100000,-0.100000)"
fill="#000000" stroke="none">
<path d="M1719 3598 c0 -2 -15 -70 -32 -153 l-32 -150 -40 -3 c-91 -6 -365
-44 -458 -63 -211 -43 -215 -48 -397 -516 -78 -203 -144 -370 -145 -371 -2 -2
-20 14 -39 36 -20 22 -60 50 -89 63 -46 21 -70 24 -225 27 l-172 4 0 -89 c0
-120 20 -183 77 -244 58 -63 113 -88 207 -97 l76 -7 -51 -73 c-100 -144 -94
-75 -97 -970 -2 -509 1 -796 7 -820 6 -21 25 -51 41 -67 l31 -30 205 -3 c289
-4 283 -9 330 282 l27 168 136 -6 c673 -33 1608 -33 2267 0 l131 6 27 -168
c31 -193 46 -236 92 -265 31 -19 46 -20 238 -17 l205 3 31 30 c16 16 35 46 41
67 6 24 9 311 7 820 -3 895 3 826 -97 970 l-51 73 74 7 c94 9 155 37 211 100
56 63 75 123 75 241 l0 89 -172 -4 c-155 -3 -179 -6 -225 -27 -29 -13 -69 -41
-89 -63 -19 -22 -37 -38 -39 -36 -2 1 -67 169 -145 371 -182 469 -186 473
-397 516 -93 19 -367 57 -458 63 l-40 3 -31 150 -30 150 -492 3 c-271 1 -492
1 -493 0z m1106 -592 c205 -21 424 -56 438 -71 17 -17 341 -855 333 -862 -16
-16 -460 -64 -781 -85 -246 -15 -966 -15 -1210 1 -325 20 -765 68 -781 84 -4
3 68 198 159 433 137 357 169 429 187 436 62 23 427 68 660 82 159 9 852 -3
995 -18z m-1801 -1356 c181 -17 331 -32 333 -34 2 -2 -26 -65 -64 -140 l-68
-136 -203 0 c-199 0 -205 1 -251 25 -25 14 -56 40 -69 59 -19 28 -112 245
-112 262 0 3 24 3 53 -1 28 -3 200 -19 381 -35z m2806 35 c0 -25 -100 -246
-123 -272 -60 -68 -82 -73 -309 -73 l-203 0 -68 136 c-38 75 -67 138 -65 140
3 2 670 67 751 73 9 0 17 -1 17 -4z m-947 -682 c-42 -143 -60 -180 -96 -207
-28 -21 -39 -21 -576 -21 l-548 0 -36 28 c-33 25 -40 40 -72 145 -20 64 -40
129 -45 145 l-9 27 709 0 708 0 -35 -117z"/>
</g>
</svg>
